<svg width="171" height="159" viewBox="0 0 171 159" fill="none" xmlns="http://www.w3.org/2000/svg">
<g style="mix-blend-mode:lighten">
<ellipse cx="126.5" cy="138" rx="21.5" ry="21" fill="#3ECCCB"/>
</g>
<g style="mix-blend-mode:lighten">
<circle cx="169" cy="15" r="2" fill="#3ECCCB"/>
</g>
<g style="mix-blend-mode:lighten">
<circle cx="166" cy="157" r="2" fill="#3ECCCB"/>
</g>
<g style="mix-blend-mode:lighten">
<circle cx="13" cy="128" r="2" fill="#3ECCCB"/>
</g>
<g style="mix-blend-mode:lighten">
<circle cx="2" cy="2" r="2" fill="#3ECCCB"/>
</g>
<g style="mix-blend-mode:lighten">
<ellipse cx="34.5" cy="31" rx="13.5" ry="13" fill="#A6CB45"/>
</g>
<g style="mix-blend-mode:lighten">
<ellipse cx="142.5" cy="127" rx="13.5" ry="13" fill="#D43484"/>
</g>
<circle cx="86" cy="79" r="68" fill="white" stroke="#1F546F" stroke-width="4"/>
<path d="M62.2281 50.5238L55.6804 75.5237H68.7757L62.2281 50.5238Z" fill="#3ECCCB"/>
<path d="M68.7753 76.7144H55.68C55.3114 76.7144 54.9627 76.5435 54.7372 76.2512C54.5117 75.9583 54.4348 75.5796 54.5281 75.2226L61.0757 50.2227C61.2126 49.6982 61.6861 49.3331 62.2276 49.3331C62.7692 49.3331 63.2426 49.6982 63.3795 50.2227L69.9272 75.2226C70.0198 75.5796 69.9435 75.9583 69.7181 76.2512C69.4926 76.5435 69.1438 76.7144 68.7753 76.7144ZM57.2229 74.3337H67.2324L62.2276 55.2227L57.2229 74.3337Z" fill="#333333"/>
<path d="M88.4181 44.5715L81.8705 69.5714H94.9658L88.4181 44.5715Z" fill="#3ECCCB"/>
<path d="M94.966 70.7621H81.8706C81.5021 70.7621 81.1533 70.5912 80.9279 70.2989C80.7017 70.006 80.6254 69.6273 80.7187 69.2703L87.2657 44.2704C87.4033 43.7459 87.8767 43.3808 88.4183 43.3808C88.9598 43.3808 89.4333 43.7459 89.5702 44.2704L96.1179 69.2703C96.2105 69.6273 96.1342 70.006 95.9087 70.2989C95.6832 70.5912 95.3345 70.7621 94.966 70.7621ZM83.4136 68.3807H93.423L88.4183 49.2704L83.4136 68.3807Z" fill="#333333"/>
<path d="M108.655 52.9046L102.108 77.9045H115.203L108.655 52.9046Z" fill="#3ECCCB"/>
<path d="M115.204 79.0952H102.108C101.74 79.0952 101.391 78.9242 101.165 78.6327C100.94 78.3398 100.863 77.9603 100.956 77.6034L107.504 52.6035C107.642 52.0797 108.114 51.7145 108.656 51.7145C109.198 51.7145 109.671 52.0797 109.808 52.6035L116.356 77.6034C116.449 77.9603 116.372 78.3398 116.146 78.6327C115.921 78.9242 115.572 79.0952 115.204 79.0952ZM103.651 76.7144H113.661L108.656 57.6041L103.651 76.7144Z" fill="#333333"/>
<path d="M95.5606 42.1907L89.0137 67.1906H102.108L95.5606 42.1907Z" fill="#3ECCCB"/>
<path d="M102.108 68.3807H89.0139C88.6453 68.3807 88.2966 68.2104 88.0704 67.9181C87.8449 67.6252 87.7686 67.2458 87.8613 66.8895L94.4089 41.889C94.5465 41.3651 95.0193 41 95.5608 41C96.1031 41 96.5758 41.3651 96.7134 41.889L103.261 66.8895C103.354 67.2458 103.277 67.6252 103.052 67.9181C102.826 68.2104 102.477 68.3807 102.108 68.3807ZM90.5561 65.9999H100.566L95.5608 46.8896L90.5561 65.9999Z" fill="#333333"/>
<path d="M121.156 94.5713C121.156 74.8473 105.166 58.8569 85.4423 58.8569C65.7176 58.8569 49.7278 74.8473 49.7278 94.5713H121.156Z" fill="#C5F0F0"/>
<path d="M121.155 95.762H49.7271C49.0691 95.762 48.5364 95.2293 48.5364 94.5713C48.5364 74.2219 65.0915 57.6668 85.4415 57.6668C105.791 57.6668 122.346 74.2219 122.346 94.5713C122.346 95.2293 121.813 95.762 121.155 95.762ZM50.9369 93.3812H119.945C119.315 74.8936 104.08 60.0476 85.4415 60.0476C66.8026 60.0476 51.5677 74.8936 50.9369 93.3812Z" fill="#333333"/>
<path d="M78.2984 70.7621L71.7508 45.7622L65.2031 70.7621H78.2984Z" fill="#3ECCCB"/>
<path d="M78.2992 71.9522H65.2038C64.8353 71.9522 64.4865 71.7819 64.2611 71.4896C64.0356 71.1967 63.9586 70.8173 64.0519 70.461L70.5996 45.4605C70.7365 44.9366 71.2099 44.5715 71.7515 44.5715C72.293 44.5715 72.7665 44.9366 72.9034 45.4605L79.4511 70.461C79.5437 70.8173 79.4674 71.1967 79.2419 71.4896C79.0165 71.7819 78.6677 71.9522 78.2992 71.9522ZM66.7468 69.5714H76.7562L71.7515 50.4611L66.7468 69.5714Z" fill="#333333"/>
<path d="M87.8227 94.5713C87.8227 86.3526 80.8935 79.6906 72.3466 79.6906C63.7989 79.6906 56.8705 86.3526 56.8705 94.5713H87.8227Z" fill="#3ECCCB"/>
<path d="M87.8233 95.762H56.8712C56.2131 95.762 55.6804 95.2293 55.6804 94.5713C55.6804 85.7089 63.1572 78.4998 72.3472 78.4998C81.5373 78.4998 89.0141 85.7089 89.0141 94.5713C89.0141 95.2293 88.4814 95.762 87.8233 95.762ZM58.115 93.3812H86.5795C85.948 86.3867 79.8063 80.8806 72.3472 80.8806C64.8881 80.8806 58.7465 86.3867 58.115 93.3812Z" fill="#333333"/>
<path d="M87.8227 114.81H56.8705L64.2989 92.1905H80.3942L87.8227 114.81Z" fill="#C5F0F0"/>
<path d="M87.8237 116H56.8715C56.49 116 56.131 115.818 55.9076 115.509C55.6828 115.199 55.6215 114.8 55.74 114.438L63.1692 91.8186C63.3299 91.3302 63.7863 90.9998 64.3006 90.9998H80.3952C80.9089 90.9998 81.3659 91.3302 81.526 91.8186L88.9552 114.438C89.0737 114.8 89.0117 115.199 88.7876 115.509C88.5641 115.818 88.2052 116 87.8237 116ZM58.5152 113.619H86.1793L79.5322 93.3813H65.1623L58.5152 113.619Z" fill="#333333"/>
<path d="M72.3475 100.524C71.6894 100.524 71.1567 99.9916 71.1567 99.3335V96.9521C71.1567 96.294 71.6894 95.762 72.3475 95.762C73.0055 95.762 73.5375 96.294 73.5375 96.9521V99.3335C73.5375 99.9916 73.0055 100.524 72.3475 100.524Z" fill="#333333"/>
<path d="M72.3475 111.238C71.6894 111.238 71.1567 110.705 71.1567 110.047V105.286C71.1567 104.628 71.6894 104.095 72.3475 104.095C73.0055 104.095 73.5375 104.628 73.5375 105.286V110.047C73.5375 110.705 73.0055 111.238 72.3475 111.238Z" fill="#333333"/>
<path d="M100.919 73.1429C100.261 73.1429 99.7285 72.6102 99.7285 71.9522C99.7285 69.9829 98.1263 68.3807 96.157 68.3807C94.1877 68.3807 92.5855 69.9829 92.5855 71.9522C92.5855 72.6102 92.0535 73.1429 91.3954 73.1429C90.7374 73.1429 90.2047 72.6102 90.2047 71.9522C90.2047 68.6709 92.8757 65.9999 96.157 65.9999C99.439 65.9999 102.109 68.6709 102.109 71.9522C102.109 72.6102 101.577 73.1429 100.919 73.1429Z" fill="#333333"/>
<path d="M105.681 86.2382C105.023 86.2382 104.491 85.7055 104.491 85.0475C104.491 83.0782 102.889 81.476 100.919 81.476C98.9499 81.476 97.3477 83.0782 97.3477 85.0475C97.3477 85.7055 96.815 86.2382 96.157 86.2382C95.4989 86.2382 94.9669 85.7055 94.9669 85.0475C94.9669 81.7655 97.6372 79.0952 100.919 79.0952C104.201 79.0952 106.871 81.7655 106.871 85.0475C106.871 85.7055 106.339 86.2382 105.681 86.2382Z" fill="#333333"/>
<path d="M94.9661 77.9045C94.308 77.9045 93.7753 77.3725 93.7753 76.7144C93.7753 74.7451 92.1732 73.1429 90.2038 73.1429C88.2345 73.1429 86.6323 74.7451 86.6323 76.7144C86.6323 77.3725 86.1003 77.9045 85.4423 77.9045C84.7842 77.9045 84.2515 77.3725 84.2515 76.7144C84.2515 73.4324 86.9218 70.7621 90.2038 70.7621C93.4858 70.7621 96.1561 73.4324 96.1561 76.7144C96.1561 77.3725 95.6241 77.9045 94.9661 77.9045Z" fill="#333333"/>
<path d="M84.2512 88.619C83.5932 88.619 83.0605 88.0863 83.0605 87.4283V82.6667C83.0605 82.0087 83.5932 81.476 84.2512 81.476C84.9092 81.476 85.4419 82.0087 85.4419 82.6667V87.4283C85.4419 88.0863 84.9092 88.619 84.2512 88.619Z" fill="white"/>
<path d="M86.6327 86.2382H81.8712C81.2131 86.2382 80.6804 85.7055 80.6804 85.0475C80.6804 84.3895 81.2131 83.8574 81.8712 83.8574H86.6327C87.2907 83.8574 87.8234 84.3895 87.8234 85.0475C87.8234 85.7055 87.2907 86.2382 86.6327 86.2382Z" fill="white"/>
</svg>
